<svg width="512" height="512" viewBox="0 0 512 512" xmlns="http://www.w3.org/2000/svg">
  <!-- Background -->
  <rect width="512" height="512" fill="#FFD700"/>

  <!-- Main Circle Background -->
  <circle cx="256" cy="256" r="220" fill="#1a1a2e" opacity="0.95"/>

  <!-- Wrench Icon -->
  <g transform="translate(256, 256) rotate(-45)">
    <!-- Wrench Body -->
    <rect x="-10" y="-80" width="20" height="120" rx="3" fill="#FFD700"/>
    <!-- Wrench Head -->
    <path d="M -20,-80 L -20,-100 L -15,-110 L 15,-110 L 20,-100 L 20,-80 Z" fill="#FFD700"/>
    <rect x="-15" y="-105" width="30" height="8" fill="#1a1a2e"/>
    <!-- Wrench Teeth -->
    <rect x="-8" y="-100" width="4" height="15" fill="#1a1a2e"/>
    <rect x="4" y="-100" width="4" height="15" fill="#1a1a2e"/>
  </g>

  <!-- Service Tools - Screwdriver -->
  <g transform="translate(320, 190) rotate(30)">
    <rect x="-3" y="0" width="6" height="60" fill="#FFD700" opacity="0.8"/>
    <polygon points="0,60 -6,75 6,75" fill="#FFD700" opacity="0.8"/>
  </g>

  <!-- Gear Icon -->
  <g transform="translate(190, 320)">
    <circle cx="0" cy="0" r="25" fill="#FFD700" opacity="0.7"/>
    <circle cx="0" cy="0" r="12" fill="#1a1a2e"/>
    <!-- Gear Teeth -->
    <rect x="-4" y="-30" width="8" height="10" fill="#FFD700" opacity="0.7"/>
    <rect x="-4" y="20" width="8" height="10" fill="#FFD700" opacity="0.7"/>
    <rect x="-30" y="-4" width="10" height="8" fill="#FFD700" opacity="0.7"/>
    <rect x="20" y="-4" width="10" height="8" fill="#FFD700" opacity="0.7"/>
  </g>
</svg>
