<svg width="512" height="512" viewBox="0 0 512 512" xmlns="http://www.w3.org/2000/svg">
  <!-- Background -->
  <rect width="512" height="512" fill="#FFD700"/>

  <!-- Main Circle -->
  <circle cx="256" cy="256" r="220" fill="#1a1a2e" opacity="0.95"/>

  <!-- Water Droplet Icon -->
  <g transform="translate(256, 180)">
    <path d="M 0,-60 C -25,-35 -45,-10 -45,15 C -45,48 -25,70 0,70 C 25,70 45,48 45,15 C 45,-10 25,-35 0,-60 Z"
          fill="#4A90E2" stroke="#FFD700" stroke-width="4"/>
    <ellipse cx="0" cy="15" rx="28" ry="35" fill="#6AB0FF" opacity="0.6"/>
    <circle cx="-12" cy="0" r="8" fill="#FFFFFF" opacity="0.8"/>
  </g>

  <!-- Cleaning Brush -->
  <g transform="translate(256, 320)">
    <rect x="-50" y="-8" width="100" height="16" rx="8" fill="#FFD700"/>
    <rect x="-45" y="8" width="15" height="35" fill="#1a1a2e" opacity="0.7"/>
    <rect x="-20" y="8" width="15" height="35" fill="#1a1a2e" opacity="0.7"/>
    <rect x="5" y="8" width="15" height="35" fill="#1a1a2e" opacity="0.7"/>
    <rect x="30" y="8" width="15" height="35" fill="#1a1a2e" opacity="0.7"/>
  </g>

  <!-- Letter K (KÄRCHER style) -->
  <text x="256" y="400" font-family="Arial, sans-serif" font-size="60" font-weight="bold"
        fill="#FFD700" text-anchor="middle">K</text>
</svg>
